<?xml version="1.0" standalone="no"?>
<svg xmlns="http://www.w3.org/2000/svg" xmlns:xlink="http://www.w3.org/1999/xlink" height="1000px" width="1000px">
  <defs>
    <pattern id="doodad" width="128" height="128" viewBox="0 0 40 40" patternUnits="userSpaceOnUse" patternTransform="rotate(116)">
      <rect width="100%" height="100%" fill="rgba(226, 5, 53,1)"/>
      <path d="M40 20L34 14L34 6L26 6L20 0L14 6L6 6L6 14L0 20L6 26L6 34L14 34L20 40L26 34L34 34L34 26z" fill="rgba(3, 158, 124,1)"/>
      <path d="M24 20L34 14L34 6L26 6L20 16L14 6L6 6L6 14L16 20L6 26L6 34L14 34L20 24L26 34L34 34L34 26z" fill="rgba(236, 201, 75,1)"/>
      <path d="M2 2L6 14v-8h8zM38 2L26 6h8v8zM2 38L6 26v8h8zM38 38L34 26v8h-8z" fill="rgba(3, 158, 124,1)"/>
    </pattern>
  </defs>
  <rect fill="url(#doodad)" height="200%" width="200%"/>
</svg>
